<svg width="18" height="18" viewBox="0 0 18 18" fill="none" xmlns="http://www.w3.org/2000/svg">
<path d="M4.55556 5H13.4444M4.55556 9H8.11111M9 17L5.44444 13H2.77778C2.30628 13 1.8541 12.7893 1.5207 12.4142C1.1873 12.0391 1 11.5304 1 11V3C1 2.46957 1.1873 1.96086 1.5207 1.58579C1.8541 1.21071 2.30628 1 2.77778 1H15.2222C15.6937 1 16.1459 1.21071 16.4793 1.58579C16.8127 1.96086 17 2.46957 17 3V11C17 11.5304 16.8127 12.0391 16.4793 12.4142C16.1459 12.7893 15.6937 13 15.2222 13H12.5556L9 17Z" stroke="black" stroke-width="2" stroke-linecap="round" stroke-linejoin="round"/>
</svg>
