<svg width="15" height="19" viewBox="0 0 15 19" fill="none" xmlns="http://www.w3.org/2000/svg">
<path fill-rule="evenodd" clip-rule="evenodd" d="M0.732019 17.9577C0.263308 17.6103 0 17.1392 0 16.6481C0 16.1569 0.263308 15.6859 0.732019 15.3385L8.96511 9.23882L0.732019 3.13914C0.276591 2.78979 0.0245861 2.32189 0.0302825 1.83622C0.035979 1.35055 0.298921 0.885966 0.762474 0.542531C1.22603 0.199097 1.8531 0.00429037 2.50864 7.00221e-05C3.16418 -0.00415033 3.79573 0.182553 4.26727 0.519968L14.268 7.92923C14.7367 8.27659 15 8.74765 15 9.23882C15 9.72998 14.7367 10.201 14.268 10.5484L4.26727 17.9577C3.79842 18.3049 3.1626 18.5 2.49964 18.5C1.83669 18.5 1.20087 18.3049 0.732019 17.9577Z" fill="black"/>
</svg>
