<svg width="15" height="19" viewBox="0 0 15 19" fill="none" xmlns="http://www.w3.org/2000/svg">
<path fill-rule="evenodd" clip-rule="evenodd" d="M14.268 0.542334C14.7367 0.889694 15 1.36075 15 1.85192C15 2.34309 14.7367 2.81415 14.268 3.16151L6.03489 9.26118L14.268 15.3609C14.7234 15.7102 14.9754 16.1781 14.9697 16.6638C14.964 17.1495 14.7011 17.614 14.2375 17.9575C13.774 18.3009 13.1469 18.4957 12.4914 18.4999C11.8358 18.5042 11.2043 18.3174 10.7327 17.98L0.732019 10.5708C0.263308 10.2234 0 9.75235 0 9.26118C0 8.77002 0.263308 8.29896 0.732019 7.9516L10.7327 0.542334C11.2016 0.195078 11.8374 1.46076e-07 12.5004 1.46076e-07C13.1633 1.46076e-07 13.7991 0.195078 14.268 0.542334Z" fill="black"/>
</svg>
