<svg width="8" height="11" viewBox="0 0 8 11" fill="none" xmlns="http://www.w3.org/2000/svg">
<path fill-rule="evenodd" clip-rule="evenodd" d="M0.39041 10.5014C0.140431 10.3097 0 10.0497 0 9.77868C0 9.50761 0.140431 9.24764 0.39041 9.05593L4.78139 5.6896L0.39041 2.32327C0.147515 2.13047 0.0131126 1.87224 0.0161507 1.60421C0.0191888 1.33617 0.159424 1.07977 0.406653 0.890236C0.653881 0.700699 0.988322 0.593188 1.33794 0.590859C1.68756 0.58853 2.02439 0.691569 2.27588 0.877784L7.60959 4.96686C7.85957 5.15856 8 5.41853 8 5.6896C8 5.96067 7.85957 6.22064 7.60959 6.41235L2.27588 10.5014C2.02582 10.6931 1.68672 10.8007 1.33314 10.8007C0.979566 10.8007 0.640465 10.6931 0.39041 10.5014Z" fill="black"/>
</svg>
