<svg width="18" height="18" viewBox="0 0 18 18" fill="none" xmlns="http://www.w3.org/2000/svg">
<path d="M9 2.20356C9.47772 1.66196 10.109 1.27867 10.81 1.10471C11.5109 0.930737 12.2482 0.974332 12.9237 1.22969C13.5992 1.48505 14.181 1.94006 14.5915 2.53419C15.0021 3.12831 15.222 3.83337 15.222 4.55556C15.222 5.27774 15.0021 5.9828 14.5915 6.57693C14.181 7.17105 13.5992 7.62606 12.9237 7.88142C12.2482 8.13678 11.5109 8.18038 10.81 8.00641C10.109 7.83244 9.47772 7.44915 9 6.90756M11.6667 17H1V16.1111C1 14.6966 1.5619 13.3401 2.5621 12.3399C3.56229 11.3397 4.91885 10.7778 6.33333 10.7778C7.74782 10.7778 9.10438 11.3397 10.1046 12.3399C11.1048 13.3401 11.6667 14.6966 11.6667 16.1111V17ZM11.6667 17H17V16.1111C17.0001 15.1749 16.7538 14.2551 16.2858 13.4442C15.8177 12.6333 15.1445 11.9599 14.3337 11.4917C13.5229 11.0236 12.6031 10.7771 11.6669 10.777C10.7306 10.777 9.81082 11.0234 9 11.4916M9.88889 4.55556C9.88889 5.49855 9.51429 6.40292 8.84749 7.06971C8.1807 7.73651 7.27633 8.11111 6.33333 8.11111C5.39034 8.11111 4.48597 7.73651 3.81918 7.06971C3.15238 6.40292 2.77778 5.49855 2.77778 4.55556C2.77778 3.61256 3.15238 2.70819 3.81918 2.0414C4.48597 1.3746 5.39034 1 6.33333 1C7.27633 1 8.1807 1.3746 8.84749 2.0414C9.51429 2.70819 9.88889 3.61256 9.88889 4.55556Z" stroke="black" stroke-width="2" stroke-linecap="round" stroke-linejoin="round"/>
</svg>
