<svg width="20" height="18" viewBox="-1 -1 19 16" fill="none" xmlns="http://www.w3.org/2000/svg">
  <path fill="none" stroke="#7D3C98" stroke-width="1.5" stroke-linejoin="round" d="M1.2406 1.24733C2.03519 0.481372 3.11275 0.0510788 4.2363 0.0510788C5.35986 0.0510788 6.43742 0.481372 7.23201 1.24733L8.47351 2.44344L9.71502 1.24733C10.1059 0.857102 10.5734 0.54584 11.0904 0.331709C11.6074 0.117579 12.1634 0.00486848 12.726 0.000154265C13.2886 -0.00455995 13.8465 0.0988168 14.3673 0.304252C14.888 0.509688 15.3611 0.813067 15.759 1.19669C16.1568 1.58031 16.4714 2.0365 16.6845 2.53862C16.8975 3.04074 17.0047 3.57876 16.9998 4.12126C16.995 4.66376 16.8781 5.1999 16.656 5.69837C16.4339 6.19685 16.1111 6.64769 15.7064 7.02459L8.47351 14L1.2406 7.02459C0.446243 6.2584 0 5.21936 0 4.13596C0 3.05257 0.446243 2.01353 1.2406 1.24733Z"/>
</svg>
