<svg width="136" height="36" viewBox="0 0 136 36" fill="none" xmlns="http://www.w3.org/2000/svg">
<path d="M10.8105 16.4414C12.959 16.4414 14.0332 16.9883 14.0332 18.082C14.0332 18.9023 13.4375 19.8594 12.2461 20.9531C10.4688 22.5742 8.07617 23.873 5.06836 24.8496C4.93164 24.8496 4.77539 24.7129 4.59961 24.4395C4.44336 24.166 4.31641 23.9609 4.21875 23.8242C4.14062 23.668 4.08203 23.5703 4.04297 23.5312C6.28906 22.7891 8.13477 21.8906 9.58008 20.8359C10.5566 20.1328 11.0449 19.5566 11.0449 19.1074C11.0449 18.6582 10.4688 18.4336 9.31641 18.4336C8.16406 18.4336 6.47461 18.707 4.24805 19.2539C3.23242 19.2148 2.35352 18.8535 1.61133 18.1699C0.966797 17.5645 0.644531 16.959 0.644531 16.3535C0.644531 15.7285 0.820312 15.1621 1.17188 14.6543C1.52344 14.127 1.99219 13.6387 2.57812 13.1895C3.16406 12.7402 3.84766 12.3301 4.62891 11.959C6.54297 11.041 8.52539 10.582 10.5762 10.582C11.1816 10.582 11.7676 10.6406 12.334 10.7578C12.8027 10.7578 13.0762 10.9629 13.1543 11.373C13.2324 11.7832 13.2715 12.457 13.2715 13.3945C12.1191 12.8672 10.8203 12.6035 9.375 12.6035C7.57812 12.6035 6.09375 12.9648 4.92188 13.6875C3.71094 14.3906 3.08594 15.3086 3.04688 16.4414C3.04688 16.9883 3.44727 17.2617 4.24805 17.2617L6.38672 17.0273C8.22266 16.6367 9.69727 16.4414 10.8105 16.4414ZM16.582 18.4336C16.582 16.1289 17.5781 14.2734 19.5703 12.8672C21.1523 11.7539 23.0566 11.0801 25.2832 10.8457C25.4004 10.8457 25.6738 10.8457 26.1035 10.8457C26.5332 10.8457 27.1094 10.9727 27.832 11.2266C29.4336 11.7734 30.5273 12.7402 31.1133 14.127C31.3477 14.6738 31.4648 15.1426 31.4648 15.5332C31.4648 15.9043 31.4551 16.168 31.4355 16.3242C31.4355 18.7656 30.5078 20.6895 28.6523 22.0957C26.9336 23.3848 24.7852 24.0293 22.207 24.0293C20.3516 24.0293 18.9453 23.5996 17.9883 22.7402C17.0508 21.8809 16.582 20.4453 16.582 18.4336ZM18.6035 19.1367C18.6035 20.3477 18.9258 21.168 19.5703 21.5977C20.0586 21.9102 20.8789 22.0664 22.0312 22.0664C23.1836 22.0664 24.1992 21.9785 25.0781 21.8027C25.957 21.627 26.7383 21.3242 27.4219 20.8945C28.8867 19.957 29.6191 18.502 29.6191 16.5293C29.6191 15.3574 29.3066 14.4004 28.6816 13.6582C27.998 12.8574 27.0996 12.457 25.9863 12.457C25.2246 12.5938 24.4531 12.7402 23.6719 12.8965C22.9102 13.0527 22.1875 13.3555 21.5039 13.8047C20.0195 14.7617 19.0527 16.5391 18.6035 19.1367ZM32.5781 20.1035C32.5781 19.791 32.5488 19.3613 32.4902 18.8145C32.4512 18.248 32.4121 17.6328 32.373 16.9688C32.334 16.3047 32.3145 15.6309 32.3145 14.9473C32.3145 14.2637 32.373 13.6387 32.4902 13.0723C32.7441 11.8027 33.2715 11.168 34.0723 11.168C34.6191 11.3242 34.9805 11.5195 35.1562 11.7539C35.3516 11.9883 35.4492 12.2812 35.4492 12.6328C35.4492 12.9648 35.3613 13.3848 35.1855 13.8926C34.541 15.5918 34.2188 17.125 34.2188 18.4922C34.2188 18.9414 34.248 19.4199 34.3066 19.9277C34.6191 21.2363 35.6934 21.8906 37.5293 21.8906C38.4863 21.8906 39.3945 21.7246 40.2539 21.3926C41.8945 20.7871 43.0078 20.0742 43.5938 19.2539C43.7695 18.3555 43.8574 17.5742 43.8574 16.9102C43.8574 16.2266 43.8281 15.6211 43.7695 15.0938C43.7305 14.5664 43.6719 13.9902 43.5938 13.3652C43.5352 12.7207 43.4961 12.0176 43.4766 11.2559C43.7305 11.1387 43.9746 11.0801 44.209 11.0801C44.4629 11.0801 44.7168 11.207 44.9707 11.4609C45.2441 11.7148 45.4688 12.1934 45.6445 12.8965C45.8398 13.5996 45.9668 14.4297 46.0254 15.3867C46.084 16.3242 46.1133 17.3008 46.1133 18.3164C46.1328 19.332 46.1426 20.3184 46.1426 21.2754C46.1426 22.2129 46.1816 23.0234 46.2598 23.707C46.0254 23.9219 45.8008 24.0293 45.5859 24.0293C44.8047 24.0293 44.2285 23.248 43.8574 21.6855C43.6035 21.9004 43.1738 22.1641 42.5684 22.4766C41.2793 23.1797 39.7559 23.6484 37.998 23.8828C37.666 23.9219 37.2949 23.9414 36.8848 23.9414C36.4746 23.9414 35.957 23.8633 35.332 23.707C34.7266 23.5508 34.1504 23.1895 33.6035 22.623C33.0566 22.0566 32.7148 21.2168 32.5781 20.1035ZM59.3848 17.584C59.3848 15.2598 59.2578 13.5508 59.0039 12.457C59.1602 12.1641 58.9258 12.0176 58.3008 12.0176C57.6367 12.0176 56.7773 12.1836 55.7227 12.5156C54.668 12.8477 53.8086 13.1797 53.1445 13.5117C51.5625 14.2734 50.6836 15.0156 50.5078 15.7383V23.707H48.5449C48.291 23.043 48.1641 21.1777 48.1641 18.1113C48.1641 15.377 48.2129 13.3652 48.3105 12.0762C48.4277 10.7871 48.5156 10.0547 48.5742 9.87891C49.082 9.54688 49.4922 9.38086 49.8047 9.38086C50.293 9.38086 50.5371 9.95703 50.5371 11.1094C50.5371 11.5586 50.5078 11.998 50.4492 12.4277C50.4102 12.8379 50.3906 13.1211 50.3906 13.2773C53.5547 10.9531 56.0059 9.79102 57.7441 9.79102C59.7168 9.79102 60.8398 11.3828 61.1133 14.5664C61.2305 15.6797 61.2891 17.2227 61.2891 19.1953L61.2598 21.5098C61.2598 22.3691 61.2793 23.1992 61.3184 24C61.123 24.1172 60.9668 24.1758 60.8496 24.1758C60.791 24.1562 60.6641 24.127 60.4688 24.0879C60.2734 24.0488 60.0195 24.0195 59.707 24C59.5117 23.2188 59.4043 22.4277 59.3848 21.627C59.3652 20.8066 59.3555 20.0547 59.3555 19.3711L59.3848 17.584ZM76.8164 0.474609C76.8164 2.34961 76.7578 4.18555 76.6406 5.98242C76.543 7.75977 76.4453 9.50781 76.3477 11.2266C76.2695 12.9258 76.2305 14.7422 76.2305 16.6758C76.2305 18.5898 76.3672 20.6211 76.6406 22.7695C76.6406 23.2188 76.5527 23.541 76.377 23.7363C76.2207 23.9316 75.9473 24.0293 75.5566 24.0293C74.6387 24.0293 74.1797 23.2676 74.1797 21.7441V20.7773C71.4062 22.8477 69.0625 23.8828 67.1484 23.8828C66.3867 23.8828 65.6055 23.6973 64.8047 23.3262C64.0234 22.9551 63.2812 22.2031 62.5781 21.0703C62.4805 20.6016 62.4316 20.123 62.4316 19.6348C62.4316 19.1465 62.5195 18.5605 62.6953 17.877C62.8906 17.1738 63.2715 16.4512 63.8379 15.709C64.4238 14.9668 65.127 14.3125 65.9473 13.7461C67.7441 12.5352 69.6875 11.9297 71.7773 11.9297C72.6758 11.9297 73.5352 12.0664 74.3555 12.3398C74.3555 11.9883 74.375 11.373 74.4141 10.4941C74.4727 9.61523 74.5312 8.6875 74.5898 7.71094C74.707 5.17188 74.7852 3.67773 74.8242 3.22852C74.8633 2.75977 74.9121 2.36914 74.9707 2.05664C75.0488 1.72461 75.1562 1.44141 75.293 1.20703C75.5859 0.71875 76.0938 0.474609 76.8164 0.474609ZM64.5703 19.4004C64.5703 20.9434 65.127 21.7148 66.2402 21.7148C66.416 21.7148 66.6113 21.6953 66.8262 21.6562C67.627 21.6562 68.6133 21.4219 69.7852 20.9531C72.0117 20.0742 73.3691 19.3125 73.8574 18.668V14.7715C73.8574 14.0879 73.3008 13.7461 72.1875 13.7461C72.0508 13.7266 71.8652 13.7168 71.6309 13.7168C71.416 13.7168 71.0742 13.7656 70.6055 13.8633C70.1367 13.9609 69.6094 14.1367 69.0234 14.3906C68.4375 14.6445 67.8613 14.957 67.2949 15.3281C66.1035 16.1289 65.2832 17.0664 64.834 18.1406C64.6582 18.5508 64.5703 18.9707 64.5703 19.4004ZM81.1523 12.252C83.8086 11.334 86.1035 10.875 88.0371 10.875C90.498 10.875 92.1387 11.5195 92.959 12.8086C93.3301 13.4141 93.5156 14.0684 93.5156 14.7715C93.5156 15.748 93.2031 16.7539 92.5781 17.7891C91.9727 18.8242 91.1621 19.7617 90.1465 20.6016C87.7832 22.5352 84.9121 23.7363 81.5332 24.2051C81.5332 24.4199 81.5332 24.7617 81.5332 25.2305C81.5527 25.7188 81.5625 26.2559 81.5625 26.8418C81.582 27.4277 81.5918 28.0527 81.5918 28.7168C81.6113 29.3809 81.6309 30.0156 81.6504 30.6211C81.709 32.125 81.748 32.9844 81.7676 33.1992C81.8066 33.4141 81.8262 33.5898 81.8262 33.7266C81.8262 34.2148 81.6699 34.5762 81.3574 34.8105C81.0449 35.0645 80.6348 35.1914 80.127 35.1914C80.0293 35.1914 79.9316 35.1914 79.834 35.1914L79.3652 11.6367C79.541 11.3828 79.7754 11.2656 80.0684 11.2852C80.3613 11.3047 80.5957 11.3828 80.7715 11.5195C80.9473 11.6562 81.0742 11.9004 81.1523 12.252ZM89.707 13.2773C89.0625 12.9453 88.3691 12.7793 87.627 12.7793C86.9043 12.7793 86.1816 12.8477 85.459 12.9844C83.8184 13.2969 82.6074 13.9902 81.8262 15.0645C81.4746 15.5723 81.2988 16.1973 81.2988 16.9395C81.2988 17.0176 81.2988 17.0957 81.2988 17.1738V22.2422C85.3223 21.3438 88.1738 20.0938 89.8535 18.4922C90.8301 17.5742 91.3184 16.627 91.3184 15.6504C91.3184 14.6152 90.7812 13.8242 89.707 13.2773ZM97.6758 10.2305C97.9297 13.8828 98.1445 18.1113 98.3203 22.916C98.2031 23.5215 97.7344 23.8242 96.9141 23.8242C96.6992 23.8242 96.4746 23.7852 96.2402 23.707C96.0254 23.6094 95.8887 23.4824 95.8301 23.3262V10.2305H97.6758ZM94.9512 6.24609C94.9512 5.5625 95.3516 5.2207 96.1523 5.2207C96.6797 5.2207 97.1094 5.33789 97.4414 5.57227C97.5 5.78711 97.5293 6.00195 97.5293 6.2168C97.5293 6.41211 97.4512 6.60742 97.2949 6.80273C97.1387 6.99805 96.9043 7.0957 96.5918 7.0957C96.2793 7.0957 95.9668 7.02734 95.6543 6.89062C95.3418 6.73437 95.1074 6.51953 94.9512 6.24609ZM111.416 20.9238C112.217 20.5918 112.998 20.2891 113.76 20.0156C114.521 19.7422 115.244 19.6055 115.928 19.6055C116.631 19.6055 116.982 19.8203 116.982 20.25C116.982 20.3477 116.953 20.5039 116.895 20.7188C116.855 20.9141 116.592 21.1582 116.104 21.4512C115.635 21.7246 115.049 21.9883 114.346 22.2422C113.662 22.4961 112.91 22.7305 112.09 22.9453C111.27 23.1602 110.469 23.3457 109.688 23.502C108.066 23.834 106.914 24 106.23 24C105.547 24 104.805 23.9219 104.004 23.7656C103.223 23.6094 102.49 23.3555 101.807 23.0039C100.225 22.1836 99.4336 20.9727 99.4336 19.3711C99.4336 19.2539 99.4336 19.0195 99.4336 18.668C99.4336 18.3164 99.5801 17.8184 99.873 17.1738C100.166 16.5098 100.605 15.8555 101.191 15.2109C101.777 14.5469 102.461 13.9414 103.242 13.3945C104.883 12.2227 106.602 11.4609 108.398 11.1094C109.023 10.9727 109.541 10.9043 109.951 10.9043C110.381 10.9043 110.732 10.9141 111.006 10.9336C111.279 10.9336 111.562 10.9531 111.855 10.9922C112.148 11.0117 112.402 11.0801 112.617 11.1973C113.125 11.4512 113.379 11.9492 113.379 12.6914C113.379 13.1602 113.047 13.6191 112.383 14.0684C112.207 14.1855 112.051 14.293 111.914 14.3906C111.816 13.9414 111.689 13.5605 111.533 13.248C111.377 12.9355 111.035 12.7793 110.508 12.7793C108.203 13.2676 106.221 14 104.561 14.9766C102.686 16.0898 101.748 17.2617 101.748 18.4922C101.748 18.6289 101.758 18.7754 101.777 18.9316C101.777 20.1816 102.256 21.0703 103.213 21.5977C103.936 21.9883 104.863 22.1836 105.996 22.1836C107.148 22.1836 108.145 22.0566 108.984 21.8027C109.824 21.5293 110.635 21.2363 111.416 20.9238ZM121.465 18.668L121.611 21.2168C121.611 22.7793 121.24 23.7266 120.498 24.0586C120.342 24.1172 120.156 24.1465 119.941 24.1465C119.727 24.1465 119.473 24.0977 119.18 24L119.209 13.043C119.209 11.4609 119.111 9.87891 118.916 8.29688C118.74 6.69531 118.652 5.10352 118.652 3.52148C118.652 2.89648 118.984 2.58398 119.648 2.58398H119.883C120.02 2.58398 120.107 2.59375 120.146 2.61328C120.439 3.82422 120.635 5.28906 120.732 7.00781C120.947 10.8164 121.143 13.375 121.318 14.6836C121.65 14.5078 122.393 14.0098 123.545 13.1895C124.697 12.3691 125.625 11.7148 126.328 11.2266C127.031 10.7188 127.695 10.25 128.32 9.82031C129.785 8.86328 130.703 8.38477 131.074 8.38477C131.387 8.38477 131.631 8.57031 131.807 8.94141C130.83 10.1719 129.258 11.5391 127.09 13.043C126.211 13.6484 125.332 14.2539 124.453 14.8594C123.594 15.4453 122.803 16.0605 122.08 16.7051C123.389 17.0566 124.629 17.4277 125.801 17.8184C126.973 18.1895 128.105 18.5312 129.199 18.8438C131.719 19.5859 133.887 20.0059 135.703 20.1035C135.703 20.6309 135.654 20.9727 135.557 21.1289C135.381 21.4023 135.02 21.5586 134.473 21.5977H134.238C133.047 21.2656 131.465 20.8945 129.492 20.4844C125.605 19.6836 122.93 19.0781 121.465 18.668Z" fill="white"/>
</svg>
