<svg width="18" height="18" viewBox="0 0 18 18" fill="none" xmlns="http://www.w3.org/2000/svg">
<path d="M1.04889 8.11111H2.77778C3.24927 8.11111 3.70146 8.29841 4.03486 8.63181C4.36825 8.96521 4.55556 9.41739 4.55556 9.88889V10.7778C4.55556 11.2493 4.74286 11.7015 5.07625 12.0349C5.40965 12.3683 5.86184 12.5556 6.33333 12.5556C6.80483 12.5556 7.25701 12.7429 7.59041 13.0763C7.92381 13.4097 8.11111 13.8618 8.11111 14.3333V16.9511M5.44444 1.83111V3.22222C5.44444 3.81159 5.67857 4.37682 6.09532 4.79357C6.51207 5.21032 7.0773 5.44444 7.66667 5.44444H8.11111C8.58261 5.44444 9.03479 5.63175 9.36819 5.96514C9.70159 6.29854 9.88889 6.75073 9.88889 7.22222C9.88889 7.69372 10.0762 8.1459 10.4096 8.4793C10.743 8.8127 11.1952 9 11.6667 9C12.1382 9 12.5903 8.8127 12.9237 8.4793C13.2571 8.1459 13.4444 7.69372 13.4444 7.22222C13.4444 6.75073 13.6317 6.29854 13.9651 5.96514C14.2985 5.63175 14.7507 5.44444 15.2222 5.44444H16.168M11.6667 16.5449V14.3333C11.6667 13.8618 11.854 13.4097 12.1874 13.0763C12.5208 12.7429 12.9729 12.5556 13.4444 12.5556H16.168M17 9C17 10.0506 16.7931 11.0909 16.391 12.0615C15.989 13.0321 15.3997 13.914 14.6569 14.6569C13.914 15.3997 13.0321 15.989 12.0615 16.391C11.0909 16.7931 10.0506 17 9 17C7.94943 17 6.90914 16.7931 5.93853 16.391C4.96793 15.989 4.08601 15.3997 3.34315 14.6569C2.60028 13.914 2.011 13.0321 1.60896 12.0615C1.20693 11.0909 1 10.0506 1 9C1 6.87827 1.84285 4.84344 3.34315 3.34315C4.84344 1.84285 6.87827 1 9 1C11.1217 1 13.1566 1.84285 14.6569 3.34315C16.1571 4.84344 17 6.87827 17 9Z" stroke="black" stroke-width="2" stroke-linecap="round" stroke-linejoin="round"/>
</svg>
