<svg width="146" height="146" viewBox="0 0 146 146" fill="none" xmlns="http://www.w3.org/2000/svg">
  <rect width="146" height="146" rx="14.6" fill="#D2D2D2"/>
  <path d="M50.5 65.9999C50.5 64.7622 51.0268 63.5753 51.9645 62.7001C52.9021 61.8249 54.1739 61.3333 55.5 61.3333H57.825C58.648 61.3334 59.4582 61.1439 60.1839 60.7816C60.9096 60.4194 61.5283 59.8955 61.985 59.2566L64.015 56.4099C64.4717 55.771 65.0904 55.2471 65.8161 54.8849C66.5418 54.5226 67.352 54.3331 68.175 54.3333H77.825C78.648 54.3331 79.4582 54.5226 80.1839 54.8849C80.9096 55.2471 81.5283 55.771 81.985 56.4099L84.015 59.2566C84.4717 59.8955 85.0904 60.4194 85.8161 60.7816C86.5418 61.1439 87.352 61.3334 88.175 61.3333H90.5C91.8261 61.3333 93.0979 61.8249 94.0355 62.7001C94.9732 63.5753 95.5 64.7622 95.5 65.9999V86.9999C95.5 88.2376 94.9732 89.4246 94.0355 90.2997C93.0979 91.1749 91.8261 91.6666 90.5 91.6666H55.5C54.1739 91.6666 52.9021 91.1749 51.9645 90.2997C51.0268 89.4246 50.5 88.2376 50.5 86.9999V65.9999Z" stroke="#333333" stroke-width="2" stroke-linecap="round" stroke-linejoin="round"/>
  <path d="M80.5 75.3333C80.5 77.1898 79.7098 78.9702 78.3033 80.283C76.8968 81.5958 74.9891 82.3333 73 82.3333C71.0109 82.3333 69.1032 81.5958 67.6967 80.283C66.2902 78.9702 65.5 77.1898 65.5 75.3333C65.5 73.4767 66.2902 71.6963 67.6967 70.3835C69.1032 69.0707 71.0109 68.3333 73 68.3333C74.9891 68.3333 76.8968 69.0707 78.3033 70.3835C79.7098 71.6963 80.5 73.4767 80.5 75.3333Z" stroke="#333333" stroke-width="2" stroke-linecap="round" stroke-linejoin="round"/>
</svg>
