<svg width="20" height="18" viewBox="0 0 20 18" fill="none" xmlns="http://www.w3.org/2000/svg">
<path d="M15 4.36528H17C17.5304 4.36528 18.0391 4.54256 18.4142 4.85812C18.7893 5.17367 19 5.60166 19 6.04792V11.0958C19 11.5421 18.7893 11.9701 18.4142 12.2857C18.0391 12.6012 17.5304 12.7785 17 12.7785H15V16.1438L11 12.7785H7C6.73733 12.7787 6.47719 12.7353 6.23453 12.6507C5.99187 12.5661 5.77148 12.442 5.586 12.2855M5.586 12.2855L9 9.41321H13C13.5304 9.41321 14.0391 9.23593 14.4142 8.92037C14.7893 8.60481 15 8.17683 15 7.73056V2.68264C15 2.23638 14.7893 1.80839 14.4142 1.49283C14.0391 1.17728 13.5304 1 13 1H3C2.46957 1 1.96086 1.17728 1.58579 1.49283C1.21071 1.80839 1 2.23638 1 2.68264V7.73056C1 8.17683 1.21071 8.60481 1.58579 8.92037C1.96086 9.23593 2.46957 9.41321 3 9.41321H5V12.7785L5.586 12.2855Z" stroke="black" stroke-width="2" stroke-linecap="round" stroke-linejoin="round"/>
</svg>
