<svg width="17" height="18" viewBox="0 0 17 18" fill="none" xmlns="http://www.w3.org/2000/svg">
<path d="M5.73594 9.91121C5.90428 9.56311 5.99928 9.17021 5.99928 8.75491C5.99928 8.33961 5.90428 7.94671 5.73594 7.59861M5.73594 9.91121C5.48403 10.432 5.06944 10.8495 4.55935 11.0963C4.04926 11.343 3.47354 11.4044 2.92546 11.2706C2.37739 11.1368 1.88906 10.8156 1.5396 10.359C1.19013 9.90238 1 9.33717 1 8.75491C1 8.17265 1.19013 7.60744 1.5396 7.15085C1.88906 6.69427 2.37739 6.37305 2.92546 6.23923C3.47354 6.10542 4.04926 6.16685 4.55935 6.41357C5.06944 6.66029 5.48403 7.07786 5.73594 7.59861M5.73594 9.91121L11.2626 12.7683M5.73594 7.59861L11.2626 4.74147M11.2626 12.7683C10.966 13.3817 10.9172 14.0917 11.127 14.7423C11.3367 15.3928 11.7878 15.9306 12.381 16.2372C12.9742 16.5439 13.6609 16.5944 14.2901 16.3775C14.9193 16.1607 15.4394 15.6943 15.736 15.0809C16.0326 14.4676 16.0814 13.7576 15.8717 13.107C15.6619 12.4565 15.2109 11.9187 14.6177 11.612C14.3239 11.4602 14.0042 11.3697 13.6766 11.3456C13.349 11.3215 13.0201 11.3644 12.7085 11.4718C12.0793 11.6886 11.5592 12.155 11.2626 12.7683ZM11.2626 4.74147C11.4095 5.04511 11.6128 5.31587 11.8608 5.53828C12.1089 5.7607 12.3969 5.93042 12.7084 6.03775C13.0199 6.14508 13.3488 6.18792 13.6763 6.16383C14.0038 6.13974 14.3236 6.04919 14.6172 5.89734C14.9109 5.74549 15.1728 5.53533 15.3879 5.27884C15.603 5.02236 15.7672 4.72457 15.871 4.4025C15.9748 4.08042 16.0162 3.74036 15.9929 3.40172C15.9696 3.06309 15.882 2.73252 15.7352 2.42888C15.4386 1.81565 14.9185 1.34937 14.2894 1.1326C13.6603 0.915837 12.9737 0.966343 12.3806 1.27301C11.7875 1.57968 11.3365 2.11739 11.1268 2.76786C10.9172 3.41832 10.966 4.12825 11.2626 4.74147Z" stroke="black" stroke-width="2" stroke-linecap="round" stroke-linejoin="round"/>
</svg>
