<svg width="14" height="12" viewBox="0 0 14 12" fill="none" xmlns="http://www.w3.org/2000/svg">
<path d="M6.10395 0.582073C6.38643 -0.194024 7.61333 -0.194024 7.89487 0.582073L8.90237 3.35614C8.96393 3.52508 9.08358 3.67229 9.24424 3.77672C9.4049 3.88114 9.59833 3.93745 9.79689 3.93758H13.0567C13.9691 3.93758 14.3476 4.98249 13.6103 5.46281L10.9739 7.17679C10.8129 7.28131 10.693 7.42876 10.6315 7.598C10.5699 7.76725 10.5698 7.94959 10.6311 8.1189L11.6386 10.893C11.9211 11.6691 10.9277 12.3154 10.1886 11.8351L7.55213 10.1211C7.39131 10.0166 7.19767 9.96032 6.99894 9.96032C6.80021 9.96032 6.60657 10.0166 6.44575 10.1211L3.80929 11.8351C3.07108 12.3154 2.07863 11.6691 2.36017 10.893L3.36768 8.1189C3.42905 7.94959 3.42894 7.76725 3.36736 7.598C3.30579 7.42876 3.18592 7.28131 3.02494 7.17679L0.389413 5.46365C-0.347855 4.98333 0.0316074 3.93842 0.943071 3.93842H4.20193C4.40065 3.93847 4.5943 3.88225 4.75514 3.77781C4.91599 3.67337 5.03578 3.52606 5.09739 3.35698L6.10489 0.582916L6.10395 0.582073Z" fill="#B2B2B2"/>
</svg>
