<svg width="14" height="18" viewBox="0 0 14 18" fill="none" xmlns="http://www.w3.org/2000/svg">
<path d="M4.99979 3.29667C4.73457 3.29667 4.48022 3.41197 4.29268 3.61721C4.10514 3.82245 3.99979 4.10082 3.99979 4.39107C3.99979 4.68133 4.10514 4.95969 4.29268 5.16493C4.48022 5.37017 4.73457 5.48548 4.99979 5.48548H10.5858L9.29279 6.90054C9.11063 7.10695 9.00983 7.3834 9.01211 7.67035C9.01439 7.9573 9.11956 8.23179 9.30497 8.4347C9.49038 8.63761 9.74119 8.75271 10.0034 8.7552C10.2656 8.7577 10.5182 8.64739 10.7068 8.44803L13.7068 5.16482C13.8943 4.95958 13.9996 4.68127 13.9996 4.39107C13.9996 4.10087 13.8943 3.82256 13.7068 3.61733L10.7068 0.334109C10.6145 0.229582 10.5042 0.146208 10.3822 0.0888514C10.2602 0.0314947 10.129 0.00130406 9.99619 4.13212e-05C9.86341 -0.00122142 9.73173 0.0264689 9.60883 0.0814966C9.48594 0.136524 9.37428 0.217787 9.28039 0.320544C9.1865 0.423301 9.11225 0.545493 9.06196 0.679992C9.01168 0.81449 8.98638 0.958601 8.98754 1.10392C8.98869 1.24923 9.01628 1.39284 9.06868 1.52636C9.12109 1.65988 9.19728 1.78064 9.29279 1.8816L10.5858 3.29667H4.99979ZM8.99979 14.2407C9.265 14.2407 9.51936 14.1254 9.70689 13.9202C9.89443 13.7149 9.99979 13.4366 9.99979 13.1463C9.99979 12.8561 9.89443 12.5777 9.70689 12.3725C9.51936 12.1672 9.265 12.0519 8.99979 12.0519H3.41379L4.70679 10.6368C4.8023 10.5359 4.87848 10.4151 4.93089 10.2816C4.9833 10.1481 5.01088 10.0045 5.01204 9.85916C5.01319 9.71385 4.98789 9.56974 4.93761 9.43524C4.88733 9.30074 4.81307 9.17855 4.71918 9.07579C4.62529 8.97303 4.51364 8.89177 4.39074 8.83674C4.26784 8.78171 4.13616 8.75402 4.00339 8.75529C3.87061 8.75655 3.73939 8.78674 3.61738 8.8441C3.49538 8.90145 3.38503 8.98483 3.29279 9.08935L0.292786 12.3726C0.105315 12.5778 0 12.8561 0 13.1463C0 13.4365 0.105315 13.7148 0.292786 13.9201L3.29279 17.2033C3.48139 17.4026 3.73399 17.5129 3.99619 17.5104C4.25838 17.508 4.5092 17.3929 4.6946 17.1899C4.88001 16.987 4.98518 16.7125 4.98746 16.4256C4.98974 16.1386 4.88894 15.8622 4.70679 15.6558L3.41379 14.2407H8.99979Z" fill="black"/>
</svg>
